# xmcd
#
# Track frame offsets:
#	150
#	23736
#	45819
#	70802
#	94289
#	116090
#	145095
#	169420
#	193713
#	214045
#	232777
#	251274
#	283845
#
# Disc length: 4194 seconds
#
# Revision: 1
# Processed by: cddbd v1.5PL3 Copyright (c) Steve Scherf et al.
# Submitted via: audiograbber 1.81.03
#
DISCID=b110600d
DTITLE=Guy Tortora - Jefferson Drive
DYEAR=2004
DGENRE=Blues
TTITLE0=My Town
TTITLE1=No Substitute
TTITLE2=Good Morning Mrs. T.
TTITLE3=Two Fried Eggs
TTITLE4=Ain't Nobodys Business
TTITLE5=Two Wrongs
TTITLE6=Done Got Over
TTITLE7=Watch Over Me
TTITLE8=Early In The Morning
TTITLE9=Long Time Blue
TTITLE10=Soul Mate
TTITLE11=Sometimes She Cries
TTITLE12=Blues Take Me Home
EXTD=Turtledove records inc.
EXTT0=
EXTT1=
EXTT2=
EXTT3=
EXTT4=
EXTT5=
EXTT6=
EXTT7=
EXTT8=
EXTT9=
EXTT10=
EXTT11=
EXTT12=
PLAYORDER=
